<?xml version="1.0" standalone="no"?>
<!DOCTYPE svg PUBLIC "-//W3C//DTD SVG 20010904//EN"
 "http://www.w3.org/TR/2001/REC-SVG-20010904/DTD/svg10.dtd">
<svg version="1.0" xmlns="http://www.w3.org/2000/svg"
 width="600.000000pt" height="537.000000pt" viewBox="0 0 600.000000 537.000000"
 preserveAspectRatio="xMidYMid meet">
<metadata>
Created by potrace 1.16, written by Peter Selinger 2001-2019
</metadata>
<g transform="translate(0.000000,537.000000) scale(0.100000,-0.100000)"
fill="#000000" stroke="none">
<path d="M3339 5045 c-1 -3 -2 -8 -3 -13 -1 -9 -247 -342 -253 -342 -2 0 -1 5
2 10 10 16 -1 11 -16 -7 -10 -11 -10 -14 -1 -9 18 11 15 -9 -5 -25 -11 -10
-14 -10 -9 -1 11 18 1 15 -15 -5 -10 -11 -10 -14 -1 -9 18 11 15 -9 -5 -25
-15 -12 -16 -12 -8 1 8 13 7 13 -8 1 -18 -15 -23 -26 -7 -16 21 13 8 -9 -52
-87 l-61 -81 57 -114 c31 -63 53 -119 50 -125 -5 -7 -2 -8 6 -3 10 6 12 4 7
-9 -4 -10 -3 -15 3 -11 8 5 116 -194 108 -199 -2 -2 -127 44 -278 102 -250 94
-360 127 -344 101 3 -5 10 -7 15 -4 5 4 9 1 9 -4 0 -6 -5 -11 -11 -11 -5 0 -7
-4 -4 -10 3 -5 -3 -15 -15 -22 -11 -7 -20 -19 -20 -26 0 -7 -7 -15 -15 -18 -8
-4 -15 -15 -15 -25 0 -11 -7 -19 -17 -19 -9 0 -14 -3 -10 -6 11 -12 -45 -75
-64 -72 -10 2 -17 -1 -16 -7 1 -5 7 -9 14 -7 8 2 1 -15 -14 -36 -16 -22 -30
-38 -32 -36 -2 2 2 10 9 19 7 9 11 17 9 19 -2 2 -106 41 -232 86 -141 52 -222
87 -215 92 8 5 9 8 2 8 -6 0 -24 -12 -39 -27 -16 -16 -25 -21 -20 -13 8 13 7
13 -8 1 -18 -15 -23 -26 -7 -16 6 3 10 4 10 1 0 -7 -357 -494 -379 -518 -15
-17 -34 -12 -325 92 -170 60 -311 108 -314 106 -2 -3 6 -26 18 -53 87 -194
190 -434 190 -443 0 -5 -53 -82 -118 -171 -64 -88 -156 -215 -204 -282 -48
-67 -92 -127 -97 -134 -14 -16 11 -35 34 -26 11 4 16 2 12 -3 -5 -9 340 -130
348 -122 2 2 -69 28 -158 57 -89 29 -166 57 -171 62 -5 5 118 -34 274 -86 284
-95 317 -104 305 -85 -3 6 -1 11 4 11 6 1 16 3 21 4 6 1 13 3 16 4 4 0 1 8 -6
16 -9 10 -9 15 -1 16 6 1 17 2 24 3 6 1 11 9 9 17 -1 9 5 23 15 30 14 12 16
12 8 0 -5 -9 -4 -12 3 -7 6 4 9 13 6 20 -3 7 3 19 13 27 17 13 17 13 3 -6 -14
-18 -14 -19 2 -7 9 8 15 19 12 26 -3 7 3 19 13 27 17 13 17 13 3 -6 -14 -18
-14 -19 2 -7 9 8 15 19 12 25 -2 7 8 26 22 42 14 17 22 23 18 15 -7 -13 -5
-13 9 -1 18 15 23 26 7 16 -17 -10 -11 12 7 26 15 12 16 12 8 -1 -8 -13 -7
-13 8 -1 18 15 23 26 7 16 -17 -10 -11 12 7 26 15 12 16 12 8 -1 -8 -13 -7
-13 8 -1 18 15 23 26 7 16 -17 -10 -11 12 7 26 15 12 16 12 8 -1 -8 -13 -7
-13 8 -1 18 15 23 26 7 16 -17 -10 -11 12 7 26 15 12 16 12 8 -1 -5 -9 -4 -12
1 -7 5 5 9 16 9 25 0 9 7 17 15 17 8 1 14 7 12 14 -1 7 12 31 30 54 17 23 33
44 34 45 1 2 11 -1 21 -7 17 -11 17 -11 0 -9 -12 2 -28 -10 -44 -32 l-25 -35
27 32 26 31 71 -24 c84 -28 88 -29 62 -9 -17 13 -16 14 16 3 40 -12 60 -26 60
-40 0 -5 -7 -2 -16 6 -25 25 -36 18 -11 -7 12 -13 25 -22 29 -20 4 2 16 -17
27 -43 l21 -46 -21 -29 c-11 -16 -23 -29 -26 -29 -3 0 1 8 8 18 13 15 12 16
-3 4 -9 -8 -15 -19 -12 -26 3 -7 -3 -19 -13 -27 -17 -13 -17 -13 -3 6 14 18
14 19 -2 7 -9 -8 -15 -19 -12 -26 3 -7 -3 -19 -12 -27 -15 -12 -17 -12 -9 0 5
9 4 12 -3 7 -6 -4 -9 -13 -6 -20 3 -7 -3 -19 -13 -27 -17 -13 -17 -13 -3 6 14
18 14 19 -2 7 -9 -8 -15 -19 -12 -26 3 -7 -3 -19 -13 -27 -17 -13 -17 -13 -3
6 14 18 14 19 -2 7 -9 -8 -15 -19 -12 -26 3 -7 -3 -19 -13 -27 -17 -13 -17
-13 -3 6 12 17 12 18 0 7 -8 -7 -15 -20 -15 -30 0 -9 -7 -17 -15 -17 -8 0 -14
-8 -12 -16 1 -9 -5 -23 -15 -30 -14 -12 -16 -12 -8 0 5 9 4 12 -3 7 -6 -4 -9
-13 -6 -20 3 -7 -3 -19 -13 -27 -17 -13 -17 -13 -3 6 12 17 12 18 0 7 -8 -7
-15 -20 -15 -30 0 -9 -7 -17 -15 -17 -8 0 -14 -8 -12 -16 1 -9 -5 -23 -15 -30
-14 -12 -16 -12 -8 0 5 9 4 12 -3 7 -6 -4 -9 -13 -6 -20 3 -7 -3 -19 -13 -27
-17 -13 -17 -13 -3 6 12 17 12 18 0 7 -8 -7 -15 -20 -15 -30 0 -9 -7 -17 -15
-17 -8 0 -15 -9 -15 -20 0 -11 -7 -20 -15 -20 -8 0 -15 -9 -15 -20 0 -11 -6
-20 -12 -20 -7 0 -12 -4 -11 -10 1 -5 7 -9 13 -8 5 2 63 -117 127 -263 l117
-265 -105 -137 c-57 -75 -157 -207 -222 -293 -64 -85 -120 -155 -124 -155 -14
2 -15 -10 -2 -22 8 -7 14 -8 14 -3 0 6 19 3 45 -6 25 -8 42 -19 39 -24 -3 -5
-1 -9 5 -9 5 0 11 4 13 9 2 5 17 3 33 -4 l30 -14 -30 5 c-29 4 -29 4 -6 -6 14
-6 30 -9 37 -6 7 3 15 0 18 -7 3 -9 7 -8 14 2 8 11 13 10 31 -8 11 -11 33 -23
48 -26 25 -5 26 -5 6 4 -29 13 -30 21 -2 14 11 -3 23 -12 26 -20 3 -8 13 -11
24 -8 24 8 129 -25 151 -48 10 -9 26 -17 35 -16 14 0 13 2 -4 9 -27 11 -31 22
-6 13 10 -3 24 -13 32 -22 9 -11 15 -12 18 -4 5 14 35 5 46 -14 4 -7 13 -13
20 -13 7 0 6 4 -3 10 -10 7 -11 10 -2 10 7 0 15 -7 18 -15 4 -8 10 -15 16 -15
5 0 6 5 2 11 -6 11 10 8 64 -12 28 -11 28 -18 0 -13 -21 4 -22 4 -3 -5 26 -12
48 -13 41 -2 -6 9 142 -33 303 -85 40 -13 80 -24 87 -24 8 0 14 -7 14 -16 0
-11 6 -14 21 -9 15 5 19 4 15 -4 -4 -6 0 -11 9 -11 9 0 14 4 11 9 -4 5 3 7 15
4 11 -3 23 -12 26 -19 3 -8 15 -11 32 -8 20 4 30 1 34 -10 4 -9 12 -16 19 -16
9 0 9 3 -2 10 -11 8 -7 9 15 4 54 -12 76 -24 69 -35 -4 -8 3 -9 25 -4 22 5 33
3 36 -7 3 -8 21 -13 46 -13 27 0 45 -6 54 -18 13 -19 30 -24 19 -6 -7 13 21 6
71 -17 25 -12 26 -13 5 -8 -22 4 -23 4 -7 -6 10 -7 25 -9 33 -6 8 3 14 1 14
-4 0 -6 5 -10 10 -10 26 0 5 28 -32 43 -24 9 -34 16 -23 16 37 -2 46 1 39 13
-5 8 -2 9 10 5 9 -4 15 -3 12 1 -3 5 19 32 49 62 30 29 55 57 55 62 0 6 7 8
15 4 8 -3 15 -2 15 2 0 15 41 52 51 47 8 -6 13 9 10 29 -1 5 5 3 14 -4 9 -7
15 -9 13 -3 -3 11 50 63 65 63 4 0 30 16 57 35 28 19 50 33 50 30 0 -4 15 5
33 19 19 14 37 23 40 19 4 -3 7 -1 7 6 0 7 4 10 9 7 5 -3 14 1 21 9 7 8 16 13
20 10 5 -3 11 -1 15 5 4 6 10 8 15 5 5 -3 16 5 24 17 9 12 17 20 19 17 3 -3
-348 -455 -430 -553 -14 -17 -14 -19 1 -13 9 4 16 2 16 -4 0 -6 6 -9 14 -6 8
3 17 1 19 -6 2 -7 8 -9 12 -5 11 11 -4 28 -26 28 -10 0 -19 2 -19 5 0 3 99
129 221 279 209 260 222 274 250 271 26 -4 128 -34 491 -148 59 -18 95 -34 92
-41 -3 -6 13 9 35 33 22 25 37 49 34 54 -5 8 -18 1 -18 -11 0 -4 -7 -17 -15
-28 -11 -15 -23 -20 -45 -18 -45 5 -563 182 -540 184 11 1 23 2 28 1 4 0 7 4
7 11 0 6 3 8 7 5 3 -4 11 -2 18 3 6 5 26 10 43 12 18 1 32 6 32 11 0 5 9 5 20
2 11 -3 20 -2 20 3 0 5 13 8 30 7 17 -1 27 2 23 8 -4 6 0 8 10 4 9 -3 19 -3
21 2 3 4 19 6 36 3 16 -2 30 0 30 4 0 5 15 10 33 11 88 5 137 4 157 -2 14 -4
20 -3 16 3 -4 6 6 7 28 2 22 -5 39 -3 47 4 9 8 10 8 5 -1 -5 -9 1 -11 24 -7
22 5 36 2 50 -11 13 -12 20 -14 20 -6 0 7 7 10 18 7 12 -4 25 1 36 13 10 10
25 18 34 16 22 -3 42 13 36 29 -3 7 6 21 18 32 23 19 23 19 8 -1 -14 -18 -14
-19 2 -7 9 8 15 19 13 25 -3 7 14 32 36 57 l41 45 -32 -43 c-43 -57 -32 -54
16 5 21 26 33 44 26 39 -21 -13 -13 10 10 30 22 19 23 19 8 -1 -15 -20 -14
-20 8 -1 23 20 30 32 12 21 -21 -13 -9 13 17 36 20 18 24 19 13 4 -14 -18 -14
-19 2 -7 9 8 15 19 12 26 -3 7 6 21 18 32 l23 19 -20 -25 -20 -25 22 19 c13
10 20 23 17 27 -5 8 192 259 203 259 3 0 -12 -21 -33 -47 -40 -50 -117 -146
-142 -175 -8 -10 -13 -18 -10 -18 4 0 52 57 109 127 57 70 98 123 91 119 -7
-4 -12 -4 -12 -1 0 9 201 255 208 255 3 0 -2 -8 -10 -17 -52 -62 -178 -223
-174 -223 3 0 51 57 107 127 57 69 97 123 91 119 -21 -13 -13 10 10 30 22 19
23 19 8 -1 -15 -20 -14 -20 8 -1 23 20 30 32 12 21 -5 -3 -10 -3 -10 0 0 8
201 255 208 255 3 0 -2 -8 -10 -17 -52 -62 -178 -223 -174 -223 3 0 51 57 107
127 57 69 97 123 91 119 -7 -4 -12 -4 -12 -1 0 9 161 205 168 205 3 0 -2 -8
-10 -17 -54 -65 -138 -173 -134 -173 3 0 42 46 87 102 46 56 78 98 71 94 -20
-12 -14 9 8 29 11 10 21 28 21 39 1 18 2 18 6 3 3 -10 -4 -28 -14 -40 l-18
-22 23 19 c23 20 27 63 5 59 -6 -1 -74 109 -152 246 l-140 248 -248 93 c-136
51 -251 96 -256 99 -7 7 57 101 69 101 3 0 -5 -14 -18 -31 -48 -65 -51 -69
-39 -69 6 0 11 5 11 11 0 6 17 31 38 57 20 25 31 42 25 38 -7 -4 -13 -5 -13
-1 0 8 101 135 107 135 6 0 3 -4 -53 -74 -21 -28 -34 -47 -28 -44 5 4 32 35
59 69 27 35 44 59 37 55 -21 -13 -13 10 10 30 22 19 23 19 8 -1 -14 -19 -14
-19 3 -6 16 13 16 16 -7 55 -171 294 -326 578 -320 588 4 6 3 8 -3 5 -12 -7
-209 331 -199 341 3 3 6 1 6 -4 0 -6 7 -19 15 -30 14 -17 14 -16 1 13 -9 17
-21 35 -27 39 -8 4 -9 3 -5 -4 4 -7 6 -12 4 -12 -2 0 -273 108 -603 240 -330
133 -586 238 -570 235 22 -4 26 -3 15 5 -16 10 -39 13 -41 5z m-861 -1827 c49
-101 106 -218 127 -260 l37 -77 -198 -263 c-109 -145 -213 -282 -230 -305 -18
-24 -35 -39 -39 -34 -3 6 -59 124 -124 264 l-118 255 226 301 c124 165 227
301 228 301 2 0 43 -82 91 -182z"/>
</g>
</svg>
